<svg width="512" height="512" viewBox="0 0 512 512" fill="none" xmlns="http://www.w3.org/2000/svg">
  <rect width="512" height="512" rx="96" fill="#07111D"/>
  <rect x="24" y="24" width="464" height="464" rx="72" stroke="#10304A" stroke-width="2"/>
  <path d="M256 92L360 132V244C360 317.5 319.5 385.5 256 420C192.5 385.5 152 317.5 152 244V132L256 92Z" fill="url(#shield)"/>
  <path d="M256 128L326 154.5V240.5C326 291.5 299.5 338.5 256 364C212.5 338.5 186 291.5 186 240.5V154.5L256 128Z" fill="#081826" stroke="#55E6C1" stroke-opacity="0.35" stroke-width="2"/>
  <path d="M220 244C230 225.333 242 216 256 216C270 216 282 225.333 292 244C282 262.667 270 272 256 272C242 272 230 262.667 220 244Z" fill="#D9FDF4" fill-opacity="0.92"/>
  <circle cx="256" cy="244" r="18" fill="#0A5C73"/>
  <circle cx="256" cy="244" r="7" fill="#55E6C1"/>
  <path d="M208 308H304" stroke="#55E6C1" stroke-width="8" stroke-linecap="round" stroke-opacity="0.9"/>
  <path d="M222 338H290" stroke="#2FB7D8" stroke-width="8" stroke-linecap="round" stroke-opacity="0.72"/>
  <text x="256" y="456" text-anchor="middle" fill="#DDEAF5" font-family="DejaVu Sans, Arial, sans-serif" font-size="42" font-weight="700" letter-spacing="8">DIPS</text>
  <defs>
    <linearGradient id="shield" x1="152" y1="92" x2="360" y2="420" gradientUnits="userSpaceOnUse">
      <stop stop-color="#10304A"/>
      <stop offset="0.55" stop-color="#0A5C73"/>
      <stop offset="1" stop-color="#1AA9C2"/>
    </linearGradient>
  </defs>
</svg>
